<mxfile host="app.diagrams.net" modified="2023-12-12T13:45:47.634Z" agent="Mozilla/5.0 (Windows NT 10.0; Win64; x64) AppleWebKit/537.36 (KHTML, like Gecko) Chrome/120.0.0.0 Safari/537.36" etag="ruAxHIADPrYA1a3Mj5JU" version="22.1.7" type="device">
  <diagram name="Page-1" id="13e1069c-82ec-6db2-03f1-153e76fe0fe0">
    <mxGraphModel dx="1038" dy="432" grid="1" gridSize="10" guides="1" tooltips="1" connect="1" arrows="1" fold="1" page="1" pageScale="1" pageWidth="1100" pageHeight="850" background="none" math="0" shadow="0">
      <root>
        <mxCell id="0" />
        <mxCell id="1" parent="0" />
        <mxCell id="7baba1c4bc27f4b0-2" value=":View" style="shape=umlLifeline;perimeter=lifelinePerimeter;whiteSpace=wrap;html=1;container=1;collapsible=0;recursiveResize=0;outlineConnect=0;rounded=1;shadow=0;comic=0;labelBackgroundColor=none;strokeWidth=1;fontFamily=Verdana;fontSize=12;align=center;" parent="1" vertex="1">
          <mxGeometry x="240" y="80" width="100" height="1210" as="geometry" />
        </mxCell>
        <mxCell id="otqbMDXwxpX56CCuv02B-2" value="select User()" style="html=1;verticalAlign=bottom;endArrow=block;entryX=0.493;entryY=0.145;labelBackgroundColor=none;fontFamily=Verdana;fontSize=12;edgeStyle=elbowEdgeStyle;elbow=vertical;entryDx=0;entryDy=0;entryPerimeter=0;" edge="1" parent="7baba1c4bc27f4b0-2">
          <mxGeometry relative="1" as="geometry">
            <mxPoint x="-90.5" y="140" as="sourcePoint" />
            <mxPoint x="49.299999999999955" y="140.10000000000002" as="targetPoint" />
            <Array as="points">
              <mxPoint x="10" y="140" />
            </Array>
          </mxGeometry>
        </mxCell>
        <mxCell id="7baba1c4bc27f4b0-3" value=":Controller" style="shape=umlLifeline;perimeter=lifelinePerimeter;whiteSpace=wrap;html=1;container=1;collapsible=0;recursiveResize=0;outlineConnect=0;rounded=1;shadow=0;comic=0;labelBackgroundColor=none;strokeWidth=1;fontFamily=Verdana;fontSize=12;align=center;" parent="1" vertex="1">
          <mxGeometry x="400" y="80" width="100" height="1210" as="geometry" />
        </mxCell>
        <mxCell id="otqbMDXwxpX56CCuv02B-9" value="send_message()" style="html=1;verticalAlign=bottom;endArrow=block;labelBackgroundColor=none;fontFamily=Verdana;fontSize=12;edgeStyle=elbowEdgeStyle;elbow=horizontal;" edge="1" parent="7baba1c4bc27f4b0-3">
          <mxGeometry x="0.0031" relative="1" as="geometry">
            <mxPoint x="-110" y="347" as="sourcePoint" />
            <mxPoint x="49.5" y="347" as="targetPoint" />
            <Array as="points">
              <mxPoint x="-10" y="347" />
            </Array>
            <mxPoint as="offset" />
          </mxGeometry>
        </mxCell>
        <mxCell id="otqbMDXwxpX56CCuv02B-16" value="" style="html=1;points=[[0,0,0,0,5],[0,1,0,0,-5],[1,0,0,0,5],[1,1,0,0,-5]];perimeter=orthogonalPerimeter;outlineConnect=0;targetShapes=umlLifeline;portConstraint=eastwest;newEdgeStyle={&quot;curved&quot;:0,&quot;rounded&quot;:0};" vertex="1" parent="7baba1c4bc27f4b0-3">
          <mxGeometry x="45" y="370" width="10" height="120" as="geometry" />
        </mxCell>
        <mxCell id="7baba1c4bc27f4b0-4" value=":Model" style="shape=umlLifeline;perimeter=lifelinePerimeter;whiteSpace=wrap;html=1;container=1;collapsible=0;recursiveResize=0;outlineConnect=0;rounded=1;shadow=0;comic=0;labelBackgroundColor=none;strokeWidth=1;fontFamily=Verdana;fontSize=12;align=center;" parent="1" vertex="1">
          <mxGeometry x="540" y="80" width="100" height="1210" as="geometry" />
        </mxCell>
        <mxCell id="otqbMDXwxpX56CCuv02B-13" value="" style="html=1;points=[[0,0,0,0,5],[0,1,0,0,-5],[1,0,0,0,5],[1,1,0,0,-5]];perimeter=orthogonalPerimeter;outlineConnect=0;targetShapes=umlLifeline;portConstraint=eastwest;newEdgeStyle={&quot;curved&quot;:0,&quot;rounded&quot;:0};" vertex="1" parent="7baba1c4bc27f4b0-4">
          <mxGeometry x="45" y="370" width="10" height="120" as="geometry" />
        </mxCell>
        <mxCell id="7baba1c4bc27f4b0-5" value="TCP:Protocole tcp" style="shape=umlLifeline;perimeter=lifelinePerimeter;whiteSpace=wrap;html=1;container=1;collapsible=0;recursiveResize=0;outlineConnect=0;rounded=1;shadow=0;comic=0;labelBackgroundColor=none;strokeWidth=1;fontFamily=Verdana;fontSize=12;align=center;" parent="1" vertex="1">
          <mxGeometry x="680" y="80" width="100" height="1210" as="geometry" />
        </mxCell>
        <mxCell id="7baba1c4bc27f4b0-8" value="user:User" style="shape=umlLifeline;perimeter=lifelinePerimeter;whiteSpace=wrap;html=1;container=1;collapsible=0;recursiveResize=0;outlineConnect=0;rounded=1;shadow=0;comic=0;labelBackgroundColor=none;strokeWidth=1;fontFamily=Verdana;fontSize=12;align=center;" parent="1" vertex="1">
          <mxGeometry x="100" y="80" width="100" height="1210" as="geometry" />
        </mxCell>
        <mxCell id="otqbMDXwxpX56CCuv02B-8" value="appuyer le boutton envoyer" style="html=1;verticalAlign=bottom;endArrow=block;entryX=0.493;entryY=0.145;labelBackgroundColor=none;fontFamily=Verdana;fontSize=12;edgeStyle=elbowEdgeStyle;elbow=horizontal;entryDx=0;entryDy=0;entryPerimeter=0;" edge="1" parent="7baba1c4bc27f4b0-8">
          <mxGeometry relative="1" as="geometry">
            <mxPoint x="50" y="322" as="sourcePoint" />
            <mxPoint x="189" y="322" as="targetPoint" />
          </mxGeometry>
        </mxCell>
        <mxCell id="7baba1c4bc27f4b0-40" value="Note" style="shape=note;whiteSpace=wrap;html=1;size=14;verticalAlign=top;align=left;spacingTop=-6;rounded=0;shadow=0;comic=0;labelBackgroundColor=none;strokeWidth=1;fontFamily=Verdana;fontSize=12" parent="1" vertex="1">
          <mxGeometry x="100" y="30" width="100" height="35" as="geometry" />
        </mxCell>
        <mxCell id="7baba1c4bc27f4b0-41" value="Note" style="shape=note;whiteSpace=wrap;html=1;size=14;verticalAlign=top;align=left;spacingTop=-6;rounded=0;shadow=0;comic=0;labelBackgroundColor=none;strokeWidth=1;fontFamily=Verdana;fontSize=12" parent="1" vertex="1">
          <mxGeometry x="240" y="30" width="100" height="35" as="geometry" />
        </mxCell>
        <mxCell id="7baba1c4bc27f4b0-42" value="Note" style="shape=note;whiteSpace=wrap;html=1;size=14;verticalAlign=top;align=left;spacingTop=-6;rounded=0;shadow=0;comic=0;labelBackgroundColor=none;strokeWidth=1;fontFamily=Verdana;fontSize=12" parent="1" vertex="1">
          <mxGeometry x="400" y="30" width="100" height="35" as="geometry" />
        </mxCell>
        <mxCell id="7baba1c4bc27f4b0-43" value="Note" style="shape=note;whiteSpace=wrap;html=1;size=14;verticalAlign=top;align=left;spacingTop=-6;rounded=0;shadow=0;comic=0;labelBackgroundColor=none;strokeWidth=1;fontFamily=Verdana;fontSize=12" parent="1" vertex="1">
          <mxGeometry x="540" y="30" width="100" height="35" as="geometry" />
        </mxCell>
        <mxCell id="7baba1c4bc27f4b0-44" value="Note" style="shape=note;whiteSpace=wrap;html=1;size=14;verticalAlign=top;align=left;spacingTop=-6;rounded=0;shadow=0;comic=0;labelBackgroundColor=none;strokeWidth=1;fontFamily=Verdana;fontSize=12" parent="1" vertex="1">
          <mxGeometry x="680" y="30" width="100" height="35" as="geometry" />
        </mxCell>
        <mxCell id="otqbMDXwxpX56CCuv02B-5" style="edgeStyle=orthogonalEdgeStyle;rounded=0;orthogonalLoop=1;jettySize=auto;html=1;" edge="1" parent="1">
          <mxGeometry relative="1" as="geometry">
            <mxPoint x="289.5" y="265" as="sourcePoint" />
            <mxPoint x="289.5" y="315" as="targetPoint" />
            <Array as="points">
              <mxPoint x="361" y="265" />
              <mxPoint x="361" y="315" />
            </Array>
          </mxGeometry>
        </mxCell>
        <mxCell id="otqbMDXwxpX56CCuv02B-6" value="&lt;font face=&quot;Verdana&quot; style=&quot;font-size: 12px;&quot;&gt;page message(user,contact choisi)&lt;/font&gt;" style="edgeLabel;html=1;align=center;verticalAlign=middle;resizable=0;points=[];" vertex="1" connectable="0" parent="otqbMDXwxpX56CCuv02B-5">
          <mxGeometry x="-0.4803" relative="1" as="geometry">
            <mxPoint y="-21" as="offset" />
          </mxGeometry>
        </mxCell>
        <mxCell id="otqbMDXwxpX56CCuv02B-11" value="get_state()" style="html=1;verticalAlign=bottom;endArrow=block;labelBackgroundColor=none;fontFamily=Verdana;fontSize=12;edgeStyle=elbowEdgeStyle;elbow=horizontal;" edge="1" parent="1">
          <mxGeometry relative="1" as="geometry">
            <mxPoint x="460" y="454" as="sourcePoint" />
            <mxPoint x="580" y="454" as="targetPoint" />
            <Array as="points">
              <mxPoint x="550" y="634" />
            </Array>
          </mxGeometry>
        </mxCell>
        <mxCell id="otqbMDXwxpX56CCuv02B-7" value="input_message(msg)" style="html=1;verticalAlign=bottom;endArrow=block;entryX=0.493;entryY=0.145;labelBackgroundColor=none;fontFamily=Verdana;fontSize=12;edgeStyle=elbowEdgeStyle;elbow=horizontal;entryDx=0;entryDy=0;entryPerimeter=0;" edge="1" parent="1">
          <mxGeometry relative="1" as="geometry">
            <mxPoint x="150" y="362" as="sourcePoint" />
            <mxPoint x="289" y="362" as="targetPoint" />
          </mxGeometry>
        </mxCell>
        <mxCell id="otqbMDXwxpX56CCuv02B-17" value="" style="endArrow=block;dashed=1;endFill=0;endSize=12;html=1;rounded=0;exitX=0;exitY=1;exitDx=0;exitDy=-5;exitPerimeter=0;entryX=1;entryY=1;entryDx=0;entryDy=-5;entryPerimeter=0;" edge="1" parent="1" source="otqbMDXwxpX56CCuv02B-13" target="otqbMDXwxpX56CCuv02B-16">
          <mxGeometry width="160" relative="1" as="geometry">
            <mxPoint x="500" y="550" as="sourcePoint" />
            <mxPoint x="660" y="550" as="targetPoint" />
          </mxGeometry>
        </mxCell>
        <mxCell id="otqbMDXwxpX56CCuv02B-18" value="alt" style="shape=umlFrame;whiteSpace=wrap;html=1;pointerEvents=0;" vertex="1" parent="1">
          <mxGeometry x="240" y="490" width="670" height="480" as="geometry" />
        </mxCell>
        <mxCell id="otqbMDXwxpX56CCuv02B-22" value="" style="endArrow=none;dashed=1;html=1;rounded=0;exitX=0.001;exitY=0.26;exitDx=0;exitDy=0;exitPerimeter=0;entryX=0.997;entryY=0.267;entryDx=0;entryDy=0;entryPerimeter=0;" edge="1" parent="1">
          <mxGeometry width="50" height="50" relative="1" as="geometry">
            <mxPoint x="250.66000000000008" y="531.2" as="sourcePoint" />
            <mxPoint x="908.02" y="533.79" as="targetPoint" />
          </mxGeometry>
        </mxCell>
        <mxCell id="otqbMDXwxpX56CCuv02B-23" value="" style="endArrow=classic;html=1;rounded=0;" edge="1" parent="1" source="otqbMDXwxpX56CCuv02B-13" target="otqbMDXwxpX56CCuv02B-16">
          <mxGeometry width="50" height="50" relative="1" as="geometry">
            <mxPoint x="510" y="550" as="sourcePoint" />
            <mxPoint x="560" y="500" as="targetPoint" />
          </mxGeometry>
        </mxCell>
        <mxCell id="otqbMDXwxpX56CCuv02B-24" value="not_disponible" style="edgeLabel;html=1;align=center;verticalAlign=middle;resizable=0;points=[];" vertex="1" connectable="0" parent="otqbMDXwxpX56CCuv02B-23">
          <mxGeometry x="-0.2667" y="2" relative="1" as="geometry">
            <mxPoint x="-17" y="-12" as="offset" />
          </mxGeometry>
        </mxCell>
        <mxCell id="otqbMDXwxpX56CCuv02B-28" value="" style="html=1;points=[[0,0,0,0,5],[0,1,0,0,-5],[1,0,0,0,5],[1,1,0,0,-5]];perimeter=orthogonalPerimeter;outlineConnect=0;targetShapes=umlLifeline;portConstraint=eastwest;newEdgeStyle={&quot;curved&quot;:0,&quot;rounded&quot;:0};" vertex="1" parent="1">
          <mxGeometry x="285" y="620" width="10" height="80" as="geometry" />
        </mxCell>
        <mxCell id="otqbMDXwxpX56CCuv02B-29" value="get_content()" style="html=1;verticalAlign=bottom;endArrow=block;curved=0;rounded=0;entryX=0;entryY=0;entryDx=0;entryDy=5;" edge="1" target="otqbMDXwxpX56CCuv02B-28" parent="1" source="7baba1c4bc27f4b0-3">
          <mxGeometry relative="1" as="geometry">
            <mxPoint x="215" y="625" as="sourcePoint" />
          </mxGeometry>
        </mxCell>
        <mxCell id="otqbMDXwxpX56CCuv02B-30" value="return" style="html=1;verticalAlign=bottom;endArrow=open;dashed=1;endSize=8;curved=0;rounded=0;exitX=0;exitY=1;exitDx=0;exitDy=-5;" edge="1" source="otqbMDXwxpX56CCuv02B-28" parent="1" target="7baba1c4bc27f4b0-3">
          <mxGeometry relative="1" as="geometry">
            <mxPoint x="215" y="695" as="targetPoint" />
          </mxGeometry>
        </mxCell>
        <mxCell id="otqbMDXwxpX56CCuv02B-31" value="" style="html=1;points=[[0,0,0,0,5],[0,1,0,0,-5],[1,0,0,0,5],[1,1,0,0,-5]];perimeter=orthogonalPerimeter;outlineConnect=0;targetShapes=umlLifeline;portConstraint=eastwest;newEdgeStyle={&quot;curved&quot;:0,&quot;rounded&quot;:0};" vertex="1" parent="1">
          <mxGeometry x="285" y="720" width="10" height="80" as="geometry" />
        </mxCell>
        <mxCell id="otqbMDXwxpX56CCuv02B-32" value="get_destination()" style="html=1;verticalAlign=bottom;endArrow=block;curved=0;rounded=0;entryX=0;entryY=0;entryDx=0;entryDy=5;" edge="1" target="otqbMDXwxpX56CCuv02B-31" parent="1" source="7baba1c4bc27f4b0-3">
          <mxGeometry relative="1" as="geometry">
            <mxPoint x="215" y="725" as="sourcePoint" />
          </mxGeometry>
        </mxCell>
        <mxCell id="otqbMDXwxpX56CCuv02B-33" value="return" style="html=1;verticalAlign=bottom;endArrow=open;dashed=1;endSize=8;curved=0;rounded=0;exitX=0;exitY=1;exitDx=0;exitDy=-5;" edge="1" source="otqbMDXwxpX56CCuv02B-31" parent="1" target="7baba1c4bc27f4b0-3">
          <mxGeometry relative="1" as="geometry">
            <mxPoint x="215" y="795" as="targetPoint" />
          </mxGeometry>
        </mxCell>
        <mxCell id="otqbMDXwxpX56CCuv02B-34" value="" style="endArrow=open;endFill=1;endSize=12;html=1;rounded=0;" edge="1" parent="1" target="7baba1c4bc27f4b0-5">
          <mxGeometry width="160" relative="1" as="geometry">
            <mxPoint x="450" y="870" as="sourcePoint" />
            <mxPoint x="610" y="870" as="targetPoint" />
          </mxGeometry>
        </mxCell>
        <mxCell id="otqbMDXwxpX56CCuv02B-35" value="TCPseng(msg)" style="edgeLabel;html=1;align=center;verticalAlign=middle;resizable=0;points=[];" vertex="1" connectable="0" parent="otqbMDXwxpX56CCuv02B-34">
          <mxGeometry x="-0.4466" relative="1" as="geometry">
            <mxPoint x="3" y="-20" as="offset" />
          </mxGeometry>
        </mxCell>
        <mxCell id="otqbMDXwxpX56CCuv02B-36" value="" style="endArrow=open;endFill=1;endSize=12;html=1;rounded=0;" edge="1" parent="1" source="7baba1c4bc27f4b0-5" target="7baba1c4bc27f4b0-3">
          <mxGeometry width="160" relative="1" as="geometry">
            <mxPoint x="650" y="1040" as="sourcePoint" />
            <mxPoint x="810" y="1040" as="targetPoint" />
            <Array as="points">
              <mxPoint x="650" y="1070" />
            </Array>
          </mxGeometry>
        </mxCell>
        <mxCell id="otqbMDXwxpX56CCuv02B-37" value="TCPreceive()" style="edgeLabel;html=1;align=center;verticalAlign=middle;resizable=0;points=[];" vertex="1" connectable="0" parent="otqbMDXwxpX56CCuv02B-36">
          <mxGeometry x="-0.2012" y="-1" relative="1" as="geometry">
            <mxPoint y="-19" as="offset" />
          </mxGeometry>
        </mxCell>
        <mxCell id="otqbMDXwxpX56CCuv02B-38" value="" style="endArrow=open;endFill=1;endSize=12;html=1;rounded=0;" edge="1" parent="1" source="7baba1c4bc27f4b0-3" target="7baba1c4bc27f4b0-2">
          <mxGeometry width="160" relative="1" as="geometry">
            <mxPoint x="450" y="1020" as="sourcePoint" />
            <mxPoint x="295" y="1020" as="targetPoint" />
            <Array as="points">
              <mxPoint x="370" y="1130" />
            </Array>
          </mxGeometry>
        </mxCell>
        <mxCell id="otqbMDXwxpX56CCuv02B-39" value="update_chatpage(message,ipsrc)" style="edgeLabel;html=1;align=center;verticalAlign=middle;resizable=0;points=[];" vertex="1" connectable="0" parent="otqbMDXwxpX56CCuv02B-38">
          <mxGeometry x="-0.0833" y="3" relative="1" as="geometry">
            <mxPoint y="-23" as="offset" />
          </mxGeometry>
        </mxCell>
      </root>
    </mxGraphModel>
  </diagram>
</mxfile>
